<svg xmlns="http://www.w3.org/2000/svg" xmlns:xlink="http://www.w3.org/1999/xlink" width="522" zoomAndPan="magnify" viewBox="0 0 391.5 112.499997" height="150" preserveAspectRatio="xMidYMid meet" version="1.0"><defs><g/><clipPath id="84ef2af3a1"><path d="M 76 9.039062 L 123 9.039062 L 123 103 L 76 103 Z M 76 9.039062 " clip-rule="nonzero"/></clipPath><clipPath id="4e9adf5960"><path d="M 111 9.039062 L 123.054688 9.039062 L 123.054688 103 L 111 103 Z M 111 9.039062 " clip-rule="nonzero"/></clipPath><clipPath id="ea3f3e9ac3"><path d="M 6 9.039062 L 54 9.039062 L 54 103 L 6 103 Z M 6 9.039062 " clip-rule="nonzero"/></clipPath><clipPath id="32bd7d4a3f"><path d="M 41 9.039062 L 101 9.039062 L 101 103 L 41 103 Z M 41 9.039062 " clip-rule="nonzero"/></clipPath></defs><g fill="#ffffff" fill-opacity="1"><g transform="translate(137.858594, 47.711292)"><g><path d="M 12.3125 0.46875 C 10.132812 0.46875 8.03125 0.175781 6 -0.40625 C 3.96875 -1 2.335938 -1.769531 1.109375 -2.71875 L 3.265625 -7.515625 C 4.441406 -6.648438 5.84375 -5.953125 7.46875 -5.421875 C 9.101562 -4.898438 10.734375 -4.640625 12.359375 -4.640625 C 14.171875 -4.640625 15.507812 -4.910156 16.375 -5.453125 C 17.238281 -5.992188 17.671875 -6.707031 17.671875 -7.59375 C 17.671875 -8.25 17.414062 -8.789062 16.90625 -9.21875 C 16.394531 -9.65625 15.738281 -10.003906 14.9375 -10.265625 C 14.132812 -10.535156 13.050781 -10.828125 11.6875 -11.140625 C 9.59375 -11.640625 7.875 -12.132812 6.53125 -12.625 C 5.195312 -13.125 4.050781 -13.925781 3.09375 -15.03125 C 2.132812 -16.132812 1.65625 -17.601562 1.65625 -19.4375 C 1.65625 -21.039062 2.085938 -22.488281 2.953125 -23.78125 C 3.816406 -25.082031 5.117188 -26.113281 6.859375 -26.875 C 8.609375 -27.644531 10.742188 -28.03125 13.265625 -28.03125 C 15.023438 -28.03125 16.742188 -27.816406 18.421875 -27.390625 C 20.097656 -26.972656 21.566406 -26.367188 22.828125 -25.578125 L 20.859375 -20.75 C 18.316406 -22.1875 15.769531 -22.90625 13.21875 -22.90625 C 11.4375 -22.90625 10.117188 -22.613281 9.265625 -22.03125 C 8.410156 -21.457031 7.984375 -20.703125 7.984375 -19.765625 C 7.984375 -18.816406 8.472656 -18.113281 9.453125 -17.65625 C 10.441406 -17.195312 11.945312 -16.742188 13.96875 -16.296875 C 16.070312 -15.796875 17.789062 -15.296875 19.125 -14.796875 C 20.46875 -14.296875 21.617188 -13.507812 22.578125 -12.4375 C 23.535156 -11.363281 24.015625 -9.90625 24.015625 -8.0625 C 24.015625 -6.488281 23.570312 -5.050781 22.6875 -3.75 C 21.8125 -2.457031 20.492188 -1.429688 18.734375 -0.671875 C 16.972656 0.0859375 14.832031 0.46875 12.3125 0.46875 Z M 12.3125 0.46875 "/></g></g></g><g fill="#ffffff" fill-opacity="1"><g transform="translate(163.713359, 47.711292)"><g><path d="M 20.828125 0 L 15.5 -7.671875 L 9.640625 -7.671875 L 9.640625 0 L 3.265625 0 L 3.265625 -27.546875 L 15.1875 -27.546875 C 17.632812 -27.546875 19.753906 -27.140625 21.546875 -26.328125 C 23.347656 -25.515625 24.734375 -24.359375 25.703125 -22.859375 C 26.671875 -21.367188 27.15625 -19.597656 27.15625 -17.546875 C 27.15625 -15.503906 26.660156 -13.738281 25.671875 -12.25 C 24.691406 -10.769531 23.296875 -9.640625 21.484375 -8.859375 L 27.671875 0 Z M 20.703125 -17.546875 C 20.703125 -19.097656 20.203125 -20.285156 19.203125 -21.109375 C 18.210938 -21.941406 16.757812 -22.359375 14.84375 -22.359375 L 9.640625 -22.359375 L 9.640625 -12.75 L 14.84375 -12.75 C 16.757812 -12.75 18.210938 -13.164062 19.203125 -14 C 20.203125 -14.84375 20.703125 -16.023438 20.703125 -17.546875 Z M 20.703125 -17.546875 "/></g></g></g><g fill="#ffffff" fill-opacity="1"><g transform="translate(193.385319, 47.711292)"><g><path d="M 3.265625 -27.546875 L 9.640625 -27.546875 L 9.640625 0 L 3.265625 0 Z M 3.265625 -27.546875 "/></g></g></g><g fill="#ffffff" fill-opacity="1"><g transform="translate(207.040828, 47.711292)"><g><path d="M 28.53125 -27.546875 L 28.53125 0 L 23.296875 0 L 9.5625 -16.734375 L 9.5625 0 L 3.265625 0 L 3.265625 -27.546875 L 8.546875 -27.546875 L 22.234375 -10.828125 L 22.234375 -27.546875 Z M 28.53125 -27.546875 "/></g></g></g><g fill="#ffffff" fill-opacity="1"><g transform="translate(239.58551, 47.711292)"><g><path d="M 3.265625 -27.546875 L 9.640625 -27.546875 L 9.640625 0 L 3.265625 0 Z M 3.265625 -27.546875 "/></g></g></g><g fill="#ffffff" fill-opacity="1"><g transform="translate(253.24102, 47.711292)"><g><path d="M 29.75 -27.546875 L 17.828125 0 L 11.53125 0 L -0.359375 -27.546875 L 6.53125 -27.546875 L 14.921875 -7.875 L 23.421875 -27.546875 Z M 29.75 -27.546875 "/></g></g></g><g fill="#ffffff" fill-opacity="1"><g transform="translate(283.345851, 47.711292)"><g><path d="M 21.40625 -5.90625 L 8.625 -5.90625 L 6.171875 0 L -0.359375 0 L 11.921875 -27.546875 L 18.21875 -27.546875 L 30.546875 0 L 23.859375 0 Z M 19.40625 -10.75 L 15.03125 -21.296875 L 10.671875 -10.75 Z M 19.40625 -10.75 "/></g></g></g><g fill="#ffffff" fill-opacity="1"><g transform="translate(314.23773, 47.711292)"><g><path d="M 12.3125 0.46875 C 10.132812 0.46875 8.03125 0.175781 6 -0.40625 C 3.96875 -1 2.335938 -1.769531 1.109375 -2.71875 L 3.265625 -7.515625 C 4.441406 -6.648438 5.84375 -5.953125 7.46875 -5.421875 C 9.101562 -4.898438 10.734375 -4.640625 12.359375 -4.640625 C 14.171875 -4.640625 15.507812 -4.910156 16.375 -5.453125 C 17.238281 -5.992188 17.671875 -6.707031 17.671875 -7.59375 C 17.671875 -8.25 17.414062 -8.789062 16.90625 -9.21875 C 16.394531 -9.65625 15.738281 -10.003906 14.9375 -10.265625 C 14.132812 -10.535156 13.050781 -10.828125 11.6875 -11.140625 C 9.59375 -11.640625 7.875 -12.132812 6.53125 -12.625 C 5.195312 -13.125 4.050781 -13.925781 3.09375 -15.03125 C 2.132812 -16.132812 1.65625 -17.601562 1.65625 -19.4375 C 1.65625 -21.039062 2.085938 -22.488281 2.953125 -23.78125 C 3.816406 -25.082031 5.117188 -26.113281 6.859375 -26.875 C 8.609375 -27.644531 10.742188 -28.03125 13.265625 -28.03125 C 15.023438 -28.03125 16.742188 -27.816406 18.421875 -27.390625 C 20.097656 -26.972656 21.566406 -26.367188 22.828125 -25.578125 L 20.859375 -20.75 C 18.316406 -22.1875 15.769531 -22.90625 13.21875 -22.90625 C 11.4375 -22.90625 10.117188 -22.613281 9.265625 -22.03125 C 8.410156 -21.457031 7.984375 -20.703125 7.984375 -19.765625 C 7.984375 -18.816406 8.472656 -18.113281 9.453125 -17.65625 C 10.441406 -17.195312 11.945312 -16.742188 13.96875 -16.296875 C 16.070312 -15.796875 17.789062 -15.296875 19.125 -14.796875 C 20.46875 -14.296875 21.617188 -13.507812 22.578125 -12.4375 C 23.535156 -11.363281 24.015625 -9.90625 24.015625 -8.0625 C 24.015625 -6.488281 23.570312 -5.050781 22.6875 -3.75 C 21.8125 -2.457031 20.492188 -1.429688 18.734375 -0.671875 C 16.972656 0.0859375 14.832031 0.46875 12.3125 0.46875 Z M 12.3125 0.46875 "/></g></g></g><g fill="#ffffff" fill-opacity="1"><g transform="translate(340.092484, 47.711292)"><g><path d="M 21.40625 -5.90625 L 8.625 -5.90625 L 6.171875 0 L -0.359375 0 L 11.921875 -27.546875 L 18.21875 -27.546875 L 30.546875 0 L 23.859375 0 Z M 19.40625 -10.75 L 15.03125 -21.296875 L 10.671875 -10.75 Z M 19.40625 -10.75 "/></g></g></g><g fill="#ffffff" fill-opacity="1"><g transform="translate(137.858594, 90.27213)"><g><path d="M 28.53125 -27.546875 L 28.53125 0 L 22.15625 0 L 22.15625 -11.296875 L 9.640625 -11.296875 L 9.640625 0 L 3.265625 0 L 3.265625 -27.546875 L 9.640625 -27.546875 L 9.640625 -16.6875 L 22.15625 -16.6875 L 22.15625 -27.546875 Z M 28.53125 -27.546875 "/></g></g></g><g fill="#ffffff" fill-opacity="1"><g transform="translate(170.403276, 90.27213)"><g><path d="M 16.609375 0.46875 C 13.742188 0.46875 11.164062 -0.144531 8.875 -1.375 C 6.582031 -2.613281 4.785156 -4.3125 3.484375 -6.46875 C 2.179688 -8.632812 1.53125 -11.070312 1.53125 -13.78125 C 1.53125 -16.476562 2.179688 -18.910156 3.484375 -21.078125 C 4.785156 -23.242188 6.582031 -24.941406 8.875 -26.171875 C 11.164062 -27.410156 13.742188 -28.03125 16.609375 -28.03125 C 19.472656 -28.03125 22.046875 -27.410156 24.328125 -26.171875 C 26.609375 -24.941406 28.40625 -23.242188 29.71875 -21.078125 C 31.03125 -18.910156 31.6875 -16.476562 31.6875 -13.78125 C 31.6875 -11.070312 31.03125 -8.632812 29.71875 -6.46875 C 28.40625 -4.3125 26.609375 -2.613281 24.328125 -1.375 C 22.046875 -0.144531 19.472656 0.46875 16.609375 0.46875 Z M 16.609375 -4.953125 C 18.234375 -4.953125 19.703125 -5.328125 21.015625 -6.078125 C 22.328125 -6.828125 23.359375 -7.867188 24.109375 -9.203125 C 24.859375 -10.546875 25.234375 -12.070312 25.234375 -13.78125 C 25.234375 -15.476562 24.859375 -16.992188 24.109375 -18.328125 C 23.359375 -19.671875 22.328125 -20.71875 21.015625 -21.46875 C 19.703125 -22.21875 18.234375 -22.59375 16.609375 -22.59375 C 14.984375 -22.59375 13.515625 -22.21875 12.203125 -21.46875 C 10.890625 -20.71875 9.859375 -19.671875 9.109375 -18.328125 C 8.359375 -16.992188 7.984375 -15.476562 7.984375 -13.78125 C 7.984375 -12.070312 8.359375 -10.546875 9.109375 -9.203125 C 9.859375 -7.867188 10.890625 -6.828125 12.203125 -6.078125 C 13.515625 -5.328125 14.984375 -4.953125 16.609375 -4.953125 Z M 16.609375 -4.953125 "/></g></g></g><g fill="#ffffff" fill-opacity="1"><g transform="translate(204.364643, 90.27213)"><g><path d="M 12.3125 0.46875 C 10.132812 0.46875 8.03125 0.175781 6 -0.40625 C 3.96875 -1 2.335938 -1.769531 1.109375 -2.71875 L 3.265625 -7.515625 C 4.441406 -6.648438 5.84375 -5.953125 7.46875 -5.421875 C 9.101562 -4.898438 10.734375 -4.640625 12.359375 -4.640625 C 14.171875 -4.640625 15.507812 -4.910156 16.375 -5.453125 C 17.238281 -5.992188 17.671875 -6.707031 17.671875 -7.59375 C 17.671875 -8.25 17.414062 -8.789062 16.90625 -9.21875 C 16.394531 -9.65625 15.738281 -10.003906 14.9375 -10.265625 C 14.132812 -10.535156 13.050781 -10.828125 11.6875 -11.140625 C 9.59375 -11.640625 7.875 -12.132812 6.53125 -12.625 C 5.195312 -13.125 4.050781 -13.925781 3.09375 -15.03125 C 2.132812 -16.132812 1.65625 -17.601562 1.65625 -19.4375 C 1.65625 -21.039062 2.085938 -22.488281 2.953125 -23.78125 C 3.816406 -25.082031 5.117188 -26.113281 6.859375 -26.875 C 8.609375 -27.644531 10.742188 -28.03125 13.265625 -28.03125 C 15.023438 -28.03125 16.742188 -27.816406 18.421875 -27.390625 C 20.097656 -26.972656 21.566406 -26.367188 22.828125 -25.578125 L 20.859375 -20.75 C 18.316406 -22.1875 15.769531 -22.90625 13.21875 -22.90625 C 11.4375 -22.90625 10.117188 -22.613281 9.265625 -22.03125 C 8.410156 -21.457031 7.984375 -20.703125 7.984375 -19.765625 C 7.984375 -18.816406 8.472656 -18.113281 9.453125 -17.65625 C 10.441406 -17.195312 11.945312 -16.742188 13.96875 -16.296875 C 16.070312 -15.796875 17.789062 -15.296875 19.125 -14.796875 C 20.46875 -14.296875 21.617188 -13.507812 22.578125 -12.4375 C 23.535156 -11.363281 24.015625 -9.90625 24.015625 -8.0625 C 24.015625 -6.488281 23.570312 -5.050781 22.6875 -3.75 C 21.8125 -2.457031 20.492188 -1.429688 18.734375 -0.671875 C 16.972656 0.0859375 14.832031 0.46875 12.3125 0.46875 Z M 12.3125 0.46875 "/></g></g></g><g fill="#ffffff" fill-opacity="1"><g transform="translate(230.219408, 90.27213)"><g><path d="M 15.1875 -27.546875 C 17.632812 -27.546875 19.753906 -27.140625 21.546875 -26.328125 C 23.347656 -25.515625 24.734375 -24.359375 25.703125 -22.859375 C 26.671875 -21.367188 27.15625 -19.597656 27.15625 -17.546875 C 27.15625 -15.535156 26.671875 -13.773438 25.703125 -12.265625 C 24.734375 -10.753906 23.347656 -9.597656 21.546875 -8.796875 C 19.753906 -7.992188 17.632812 -7.59375 15.1875 -7.59375 L 9.640625 -7.59375 L 9.640625 0 L 3.265625 0 L 3.265625 -27.546875 Z M 14.84375 -12.796875 C 16.757812 -12.796875 18.210938 -13.207031 19.203125 -14.03125 C 20.203125 -14.851562 20.703125 -16.023438 20.703125 -17.546875 C 20.703125 -19.097656 20.203125 -20.285156 19.203125 -21.109375 C 18.210938 -21.941406 16.757812 -22.359375 14.84375 -22.359375 L 9.640625 -22.359375 L 9.640625 -12.796875 Z M 14.84375 -12.796875 "/></g></g></g><g fill="#ffffff" fill-opacity="1"><g transform="translate(259.773309, 90.27213)"><g><path d="M 3.265625 -27.546875 L 9.640625 -27.546875 L 9.640625 0 L 3.265625 0 Z M 3.265625 -27.546875 "/></g></g></g><g fill="#ffffff" fill-opacity="1"><g transform="translate(273.428819, 90.27213)"><g><path d="M 8.96875 -22.359375 L 0.15625 -22.359375 L 0.15625 -27.546875 L 24.171875 -27.546875 L 24.171875 -22.359375 L 15.34375 -22.359375 L 15.34375 0 L 8.96875 0 Z M 8.96875 -22.359375 "/></g></g></g><g fill="#ffffff" fill-opacity="1"><g transform="translate(298.496535, 90.27213)"><g><path d="M 21.40625 -5.90625 L 8.625 -5.90625 L 6.171875 0 L -0.359375 0 L 11.921875 -27.546875 L 18.21875 -27.546875 L 30.546875 0 L 23.859375 0 Z M 19.40625 -10.75 L 15.03125 -21.296875 L 10.671875 -10.75 Z M 19.40625 -10.75 "/></g></g></g><g fill="#ffffff" fill-opacity="1"><g transform="translate(329.388425, 90.27213)"><g><path d="M 3.265625 -27.546875 L 9.640625 -27.546875 L 9.640625 -5.203125 L 23.453125 -5.203125 L 23.453125 0 L 3.265625 0 Z M 3.265625 -27.546875 "/></g></g></g><g clip-path="url(#84ef2af3a1)"><path fill="#ffffff" d="M 120.132812 9.042969 L 101.449219 9.042969 L 101.449219 34.433594 L 76.058594 34.433594 L 76.058594 77.402344 L 101.449219 77.402344 L 101.449219 102.792969 C 161.328125 55.757812 70.035156 44.4375 120.132812 9.042969 " fill-opacity="1" fill-rule="nonzero"/></g><g clip-path="url(#4e9adf5960)"><path fill="#ffffff" d="M 144.414062 34.433594 L 144.414062 9.042969 L 121.1875 9.042969 C 80.417969 49.207031 179.058594 51.210938 128.613281 102.792969 L 144.414062 102.792969 L 144.414062 77.402344 L 169.804688 77.402344 L 169.804688 34.433594 L 144.414062 34.433594 " fill-opacity="1" fill-rule="nonzero"/></g><g clip-path="url(#ea3f3e9ac3)"><path fill="#ffffff" d="M 50.710938 9.042969 L 32.023438 9.042969 L 32.023438 34.433594 L 6.632812 34.433594 L 6.632812 77.402344 L 32.023438 77.402344 L 32.023438 102.792969 C 91.90625 55.757812 0.613281 44.4375 50.710938 9.042969 " fill-opacity="1" fill-rule="nonzero"/></g><g clip-path="url(#32bd7d4a3f)"><path fill="#ffffff" d="M 74.992188 34.433594 L 74.992188 9.042969 L 51.765625 9.042969 C 10.996094 49.207031 109.632812 51.210938 59.191406 102.792969 L 74.992188 102.792969 L 74.992188 77.402344 L 100.382812 77.402344 L 100.382812 34.433594 L 74.992188 34.433594 " fill-opacity="1" fill-rule="nonzero"/></g></svg>